<svg width="143" height="144" xmlns="http://www.w3.org/2000/svg"><g transform="translate(0 .995)" fill="none" fill-rule="evenodd" opacity=".3"><ellipse stroke="#FFF" stroke-width="10.5" cx="71.5" cy="71.503" rx="66.25" ry="66.253"/><path d="M44.358 109.88c0-5.544.693-10.606 2.079-15.188 1.386-4.581 3.407-8.547 6.063-11.896 2.657-3.35 5.429-6.199 8.316-8.547 2.888-2.349 6.295-4.678 10.222-6.988 4.158-2.541 7.354-4.967 9.587-7.277 2.232-2.31 3.349-5.12 3.349-8.431 0-3.311-1.04-5.968-3.119-7.97s-4.889-3.003-8.431-3.003c-7.238 0-12.166 3.35-14.784 10.049l-12.243-5.544c2.079-5.236 5.525-9.452 10.337-12.647 4.813-3.196 10.299-4.794 16.459-4.794 7.931 0 14.187 2.214 18.769 6.642 4.581 4.427 6.872 10.067 6.872 16.92 0 3.542-.481 6.7-1.444 9.471-.962 2.772-2.54 5.275-4.735 7.508-2.195 2.233-4.312 4.062-6.353 5.486-2.04 1.425-4.832 3.176-8.374 5.255-9.548 5.775-15.053 11.704-16.516 17.787h38.115v13.167h-54.17z" fill="#FFF" fill-rule="nonzero"/></g></svg>