<svg width="143" height="144" xmlns="http://www.w3.org/2000/svg"><g transform="translate(0 .995)" fill="none" fill-rule="evenodd" opacity=".3"><ellipse stroke="#FFF" stroke-width="10.5" cx="71.5" cy="71.503" rx="66.25" ry="66.253"/><path d="M71.5 111.266c-6.776 0-12.493-1.694-17.152-5.082-4.658-3.388-8.143-8.008-10.453-13.86l12.359-5.082c3.465 7.392 8.663 11.088 15.593 11.088 3.926 0 7.16-1.04 9.701-3.118 2.541-2.08 3.812-4.967 3.812-8.663 0-3.619-1.174-6.545-3.523-8.778-2.348-2.233-5.794-3.35-10.337-3.35h-7.277v-13.05h6.93c3.388 0 6.122-.944 8.201-2.83 2.079-1.887 3.118-4.409 3.118-7.566 0-3.08-1-5.582-3.003-7.507-2.002-1.925-4.62-2.888-7.854-2.888-5.544 0-9.817 2.888-12.82 8.663l-12.359-4.736c2.156-5.082 5.41-9.163 9.76-12.243s9.49-4.62 15.42-4.62c7.16 0 13.051 2.08 17.671 6.237 4.62 4.158 6.93 9.394 6.93 15.708 0 7.777-3.311 13.59-9.933 17.44 3.85 1.54 6.969 4.005 9.356 7.393 2.387 3.388 3.58 7.392 3.58 12.012 0 7.623-2.56 13.667-7.68 18.133-5.121 4.466-11.801 6.7-20.04 6.7z" fill="#FFF" fill-rule="nonzero"/></g></svg>