<svg id="a2758a5b-03f4-49d5-860e-6451def4ce3b" data-name="Layer 1" xmlns="http://www.w3.org/2000/svg" viewBox="0 0 496 150"><defs><clipPath id="b5ac5666-6b4c-40c4-a104-38ddfabb218e"><circle class="b399a64a-83d1-4855-a119-867a082cbf43" cx="79" cy="115.24" r="47.59"/></clipPath><clipPath id="b5c9b341-e231-49e7-8768-abe34efc2eac"><path class="b399a64a-83d1-4855-a119-867a082cbf43" d="M23.89 27.57v87.67a7.54 7.54 0 0 0 7.52 7.51h95.18a7.54 7.54 0 0 0 7.52-7.51V27.57Zm67.63 20h-25a5 5 0 0 1 0-10h25a5 5 0 1 1 0 10Z"/></clipPath><radialGradient id="aa0b694b-cd89-4cdc-996b-d7dc63b3a388" cx="91.33" cy="46.35" r="570.08" gradientTransform="matrix(.25 0 0 -.25 .75 38.75)" gradientUnits="userSpaceOnUse"><stop offset="0" stop-color="#fff" stop-opacity=".1"/><stop offset="1" stop-color="#fff" stop-opacity="0"/></radialGradient><style>.b399a64a-83d1-4855-a119-867a082cbf43{fill:none}.b1d5df7f-d72d-451f-91c1-b2ba6caabb5e{fill:#fff}.e8c71a09-46ed-40d3-9a85-f7ddb5ce7505{fill:#5f6368}.aa12b56a-60c4-4830-b6fc-213247d16408{clip-path:url(#b5c9b341-e231-49e7-8768-abe34efc2eac)}.fb8c5240-578a-4eca-91cb-c87210e6d26a{fill:#212121;fill-opacity:.02}</style></defs><path class="b1d5df7f-d72d-451f-91c1-b2ba6caabb5e" d="M1 1h494v148H1z"/><path d="M494 2v146H2V2h492m2-2H0v150h496V0Z" style="fill:#dadce0"/><path class="e8c71a09-46ed-40d3-9a85-f7ddb5ce7505" d="M173.13 106.16a14 14 0 0 1-9.8-23.72 13.35 13.35 0 0 1 9.8-4 12.26 12.26 0 0 1 9.73 4.33l-2.36 2.3a8.93 8.93 0 0 0-7.37-3.37 10 10 0 0 0-7.3 2.92 11.33 11.33 0 0 0 0 15.32 10 10 0 0 0 7.3 2.92 10.45 10.45 0 0 0 8.14-3.84l2.37 2.37a12.9 12.9 0 0 1-4.55 3.45 14 14 0 0 1-5.96 1.32ZM190.08 79.08v8.36l-.15 2.56h.15a6.06 6.06 0 0 1 2.33-2.2 6.78 6.78 0 0 1 3.4-.9 6.42 6.42 0 0 1 5.19 2.02 8.25 8.25 0 0 1 1.77 5.55v11.1h-3.4V95q0-5-4.48-5a4.21 4.21 0 0 0-3.44 1.69 6.08 6.08 0 0 0-1.33 3.9v10h-3.41V79.08ZM210.13 105.57h-3.4V87.44H210v3h.15a4.66 4.66 0 0 1 2.11-2.44 6.12 6.12 0 0 1 3.13-1 6.4 6.4 0 0 1 2.55.45l-1.3 3.18a5.14 5.14 0 0 0-1.81-.26 4.46 4.46 0 0 0-3.27 1.46 5.26 5.26 0 0 0-1.43 3.83ZM220.64 89.6a9.52 9.52 0 0 1 13.39 0 10.37 10.37 0 0 1 0 13.8 9.5 9.5 0 0 1-13.39 0 10.37 10.37 0 0 1 0-13.8Zm2.53 11.66a5.74 5.74 0 0 0 8.33 0 7.3 7.3 0 0 0 0-9.51 5.72 5.72 0 0 0-8.33 0 7.34 7.34 0 0 0 0 9.51ZM239.4 105.57V87.44h3.26V90h.14a6.41 6.41 0 0 1 2.39-2.2 6.51 6.51 0 0 1 3.2-.9q4.22 0 5.73 3.47a7.11 7.11 0 0 1 6.33-3.47 5.81 5.81 0 0 1 4.85 2.05 8.77 8.77 0 0 1 1.63 5.57v11.1h-3.41V95a5.92 5.92 0 0 0-1-3.89 3.8 3.8 0 0 0-3-1.15 4 4 0 0 0-3.31 1.71 6.15 6.15 0 0 0-1.31 3.88v10h-3.41V95a5.92 5.92 0 0 0-1-3.89 3.82 3.82 0 0 0-3-1.15 4 4 0 0 0-3.31 1.71 6.16 6.16 0 0 0-1.32 3.88v10ZM279.14 106.16a8.72 8.72 0 0 1-6.68-2.74 9.67 9.67 0 0 1-2.57-6.92 10 10 0 0 1 2.49-6.8 8.13 8.13 0 0 1 6.39-2.85 8.34 8.34 0 0 1 6.45 2.62 10 10 0 0 1 2.43 7v.63h-14.36a6.16 6.16 0 0 0 1.83 4.33 5.56 5.56 0 0 0 3.94 1.59 4.88 4.88 0 0 0 5-3.11l3 1.26a8.08 8.08 0 0 1-2.92 3.54 8.49 8.49 0 0 1-5 1.45ZM284 94.32a4.83 4.83 0 0 0-1.42-3 5.1 5.1 0 0 0-3.89-1.32 4.86 4.86 0 0 0-3.27 1.19 6.06 6.06 0 0 0-1.91 3.18ZM328.87 79.08l-7.07 26.49h-3.48l-5.7-17.46h-.15l-5.69 17.46h-3.48l-7.37-26.49h3.56l5.58 20.83h.15L311 82.63h3.18l5.73 17.28h.09l5.29-20.83ZM337.71 106.16a8.72 8.72 0 0 1-6.68-2.74 9.67 9.67 0 0 1-2.57-6.92 9.94 9.94 0 0 1 2.5-6.8 8.09 8.09 0 0 1 6.38-2.85 8.34 8.34 0 0 1 6.45 2.62 10 10 0 0 1 2.43 7v.63h-14.36a6.16 6.16 0 0 0 1.83 4.33 5.58 5.58 0 0 0 3.94 1.59 4.87 4.87 0 0 0 5-3.11l3 1.26a8.17 8.17 0 0 1-2.93 3.54 8.47 8.47 0 0 1-4.99 1.45Zm4.88-11.84a4.83 4.83 0 0 0-1.42-3 5.1 5.1 0 0 0-3.91-1.32 4.88 4.88 0 0 0-3.26 1.14 6.06 6.06 0 0 0-1.91 3.18ZM358.91 106.16a7.75 7.75 0 0 1-3.72-.89 6.22 6.22 0 0 1-2.46-2.22h-.15v2.52h-3.25V79.08h3.4v8.36l-.15 2.56h.15a6.37 6.37 0 0 1 2.46-2.22 7.74 7.74 0 0 1 3.72-.88 8 8 0 0 1 6.09 2.72 10.57 10.57 0 0 1 0 13.77 8 8 0 0 1-6.09 2.77Zm-.56-3.11a5.42 5.42 0 0 0 4.07-1.79 7.47 7.47 0 0 0 0-9.51 5.53 5.53 0 0 0-8.15 0 7.59 7.59 0 0 0 0 9.55 5.42 5.42 0 0 0 4.08 1.75ZM385.73 106.16a9.88 9.88 0 0 1-5.64-1.89 8.72 8.72 0 0 1-3.61-5.27l3.11-1.25a7.11 7.11 0 0 0 2.28 3.68 5.69 5.69 0 0 0 3.86 1.49 6.19 6.19 0 0 0 3.8-1.16 3.75 3.75 0 0 0 1.57-3.16 4.1 4.1 0 0 0-1.57-3.43 16.55 16.55 0 0 0-5-2.24 13.28 13.28 0 0 1-5.33-2.86 6 6 0 0 1-1.81-4.5 6.57 6.57 0 0 1 2.26-5 8.28 8.28 0 0 1 5.88-2.11 8.51 8.51 0 0 1 5.47 1.71 7.77 7.77 0 0 1 2.74 3.68l-3.11 1.3a4.62 4.62 0 0 0-1.63-2.34 5.23 5.23 0 0 0-3.39-1.07 5.32 5.32 0 0 0-3.35 1.09 3.35 3.35 0 0 0-1.38 2.72 3.08 3.08 0 0 0 1.27 2.5 12.17 12.17 0 0 0 3.76 1.83 32.06 32.06 0 0 1 3.27 1.22 15.59 15.59 0 0 1 2.67 1.57 6.23 6.23 0 0 1 2 2.45 7.82 7.82 0 0 1 .69 3.38 7.3 7.3 0 0 1-.8 3.44 6.43 6.43 0 0 1-2.11 2.41 10.57 10.57 0 0 1-5.94 1.81ZM405.05 105.86a5.26 5.26 0 0 1-5.85-5.8v-9.51H396v-3.11h3.18v-5.55h3.41v5.55h4.44v3.11h-4.44v9.25c0 2 .81 3 2.44 3a3.6 3.6 0 0 0 1.55-.3l1.19 2.92a6.93 6.93 0 0 1-2.72.44ZM411.71 89.6a9.52 9.52 0 0 1 13.39 0 10.37 10.37 0 0 1 0 13.8 9.5 9.5 0 0 1-13.39 0 10.37 10.37 0 0 1 0-13.8Zm2.53 11.66a5.74 5.74 0 0 0 8.33 0 7.3 7.3 0 0 0 0-9.51 5.72 5.72 0 0 0-8.33 0 7.34 7.34 0 0 0 0 9.51ZM433.87 105.57h-3.4V87.44h3.25v3h.15A4.62 4.62 0 0 1 436 88a6.09 6.09 0 0 1 3.12-1 6.41 6.41 0 0 1 2.56.45l-1.3 3.18a5.18 5.18 0 0 0-1.81-.26 4.48 4.48 0 0 0-3.28 1.46 5.26 5.26 0 0 0-1.42 3.83ZM451 106.16a8.74 8.74 0 0 1-6.68-2.74 9.71 9.71 0 0 1-2.57-6.92 9.94 9.94 0 0 1 2.5-6.8 8.09 8.09 0 0 1 6.38-2.85 8.37 8.37 0 0 1 6.46 2.62 10 10 0 0 1 2.42 7v.63h-14.35a6.08 6.08 0 0 0 1.83 4.33 5.54 5.54 0 0 0 3.94 1.59 4.86 4.86 0 0 0 4.95-3.11l3 1.26a8.15 8.15 0 0 1-2.92 3.54 8.52 8.52 0 0 1-4.96 1.45Zm4.88-11.84a4.77 4.77 0 0 0-1.42-3 5.09 5.09 0 0 0-3.9-1.41 4.91 4.91 0 0 0-3.28 1.19 6 6 0 0 0-1.9 3.18ZM161.34 64.44l7.56-20h2.91l7.56 20h-2.86L174.58 59h-8.43l-2 5.43ZM167 56.6h6.66l-3.27-9.05h-.11ZM184 64.44l-5.54-13.72h2.8l4 10.64h.05l4.09-10.64h2.75l-5.6 13.72ZM197.88 64.89a5.43 5.43 0 0 1-3.66-1.26 4.18 4.18 0 0 1-1.47-3.34 4.11 4.11 0 0 1 1.74-3.51 7 7 0 0 1 4.28-1.27 7.43 7.43 0 0 1 3.73.84V56a3.08 3.08 0 0 0-1-2.42 3.76 3.76 0 0 0-2.55-.91 4 4 0 0 0-2 .53 2.71 2.71 0 0 0-1.24 1.46l-2.36-1a5.4 5.4 0 0 1 1.88-2.28 6 6 0 0 1 3.7-1 6.3 6.3 0 0 1 4.36 1.54 5.49 5.49 0 0 1 1.71 4.23v8.29h-2.5v-1.91h-.12a5 5 0 0 1-4.5 2.36Zm.42-2.36a4.14 4.14 0 0 0 2.89-1.19 3.69 3.69 0 0 0 1.31-2.81 5.07 5.07 0 0 0-3.28-.9 4.23 4.23 0 0 0-2.83.82 2.44 2.44 0 0 0-.95 1.9 1.85 1.85 0 0 0 .87 1.6 3.47 3.47 0 0 0 1.99.58ZM210.67 47.27a1.82 1.82 0 1 1 .53-1.27 1.73 1.73 0 0 1-.53 1.27Zm0 17.17h-2.57V50.72h2.57ZM216.61 64.44H214v-20h2.58ZM223.94 64.89a5.42 5.42 0 0 1-3.65-1.26 4.18 4.18 0 0 1-1.47-3.34 4.11 4.11 0 0 1 1.74-3.51 7 7 0 0 1 4.28-1.27 7.37 7.37 0 0 1 3.72.84V56a3.07 3.07 0 0 0-1-2.42 3.76 3.76 0 0 0-2.55-.91 4 4 0 0 0-2 .53 2.77 2.77 0 0 0-1.25 1.46l-2.35-1a5.32 5.32 0 0 1 1.88-2.28 6 6 0 0 1 3.69-1 6.32 6.32 0 0 1 4.37 1.54 5.49 5.49 0 0 1 1.65 4.23v8.29h-2.47v-1.91h-.11a5.06 5.06 0 0 1-4.48 2.36Zm.42-2.36a4.16 4.16 0 0 0 2.9-1.19 3.68 3.68 0 0 0 1.3-2.81 5 5 0 0 0-3.27-.9 4.21 4.21 0 0 0-2.83.82 2.41 2.41 0 0 0-1 1.9 1.85 1.85 0 0 0 .87 1.6 3.44 3.44 0 0 0 2.03.58ZM241.19 64.89a5.81 5.81 0 0 1-2.81-.68 4.63 4.63 0 0 1-1.86-1.68h-.12v1.91h-2.46v-20h2.58v6.33l-.12 1.9h.12a4.78 4.78 0 0 1 1.86-1.68 5.81 5.81 0 0 1 2.81-.67 6 6 0 0 1 4.59 2.1 8 8 0 0 1 0 10.42 6 6 0 0 1-4.59 2.05Zm-.42-2.36a4.1 4.1 0 0 0 3.08-1.35 5.67 5.67 0 0 0 0-7.2 4.19 4.19 0 0 0-6.17 0 5.73 5.73 0 0 0 0 7.22 4.08 4.08 0 0 0 3.09 1.33ZM252.5 64.44h-2.57v-20h2.57ZM261.72 64.89a6.6 6.6 0 0 1-5.06-2.08 7.31 7.31 0 0 1-1.94-5.23 7.53 7.53 0 0 1 1.89-5.15 6.13 6.13 0 0 1 4.83-2.16 6.3 6.3 0 0 1 4.88 2 7.55 7.55 0 0 1 1.84 5.32v.47h-10.87a4.67 4.67 0 0 0 1.39 3.28 4.2 4.2 0 0 0 3 1.2 3.68 3.68 0 0 0 3.75-2.35l2.3 1a6.19 6.19 0 0 1-2.21 2.68 6.43 6.43 0 0 1-3.8 1.02Zm3.69-9a3.57 3.57 0 0 0-1.08-2.24 3.83 3.83 0 0 0-2.95-1.07 3.69 3.69 0 0 0-2.48.9 4.57 4.57 0 0 0-1.44 2.41ZM279.47 47.27a1.82 1.82 0 0 1-2.58-2.57 1.83 1.83 0 0 1 2.58 0 1.82 1.82 0 0 1 0 2.57Zm0 17.17h-2.58V50.72h2.58ZM285.29 50.72v1.9h.11a4.53 4.53 0 0 1 1.77-1.62 5.08 5.08 0 0 1 2.57-.69 4.82 4.82 0 0 1 3.89 1.57A6.2 6.2 0 0 1 295 56v8.4h-2.6v-8q0-3.81-3.39-3.81a3.17 3.17 0 0 0-2.6 1.28 4.63 4.63 0 0 0-1 3v7.59h-2.57V50.72ZM310.1 64.66a4 4 0 0 1-4.43-4.39v-7.2h-2.41v-2.35h2.41v-4.2h2.58v4.2h3.36v2.35h-3.36v7c0 1.49.62 2.24 1.85 2.24a2.72 2.72 0 0 0 1.17-.22l.9 2.21a5.26 5.26 0 0 1-2.07.36ZM316.79 44.39v6.33l-.11 1.9h.11a4.5 4.5 0 0 1 1.76-1.62 5.09 5.09 0 0 1 2.58-.69 4.83 4.83 0 0 1 3.87 1.53 6.19 6.19 0 0 1 1.34 4.2v8.4h-2.57v-8q0-3.81-3.39-3.81a3.17 3.17 0 0 0-2.6 1.28 4.57 4.57 0 0 0-1 3v7.59h-2.58v-20ZM335.6 64.89a6.59 6.59 0 0 1-5.05-2.08 7.32 7.32 0 0 1-1.95-5.23 7.53 7.53 0 0 1 1.89-5.15 6.13 6.13 0 0 1 4.83-2.16 6.31 6.31 0 0 1 4.89 2 7.54 7.54 0 0 1 1.79 5.31v.47h-10.82a4.63 4.63 0 0 0 1.39 3.28 4.2 4.2 0 0 0 3 1.2 3.68 3.68 0 0 0 3.75-2.35l2.3 1a6.15 6.15 0 0 1-2.22 2.68 6.39 6.39 0 0 1-3.8 1.03Zm3.7-9a3.68 3.68 0 0 0-1.08-2.24 3.85 3.85 0 0 0-3-1.07 3.69 3.69 0 0 0-2.48.9 4.57 4.57 0 0 0-1.44 2.41Z"/><path d="M23.89 27.57h110.22v95.18H23.89Z" style="fill:#eee" class="aa12b56a-60c4-4830-b6fc-213247d16408"/><g class="aa12b56a-60c4-4830-b6fc-213247d16408"><path class="b1d5df7f-d72d-451f-91c1-b2ba6caabb5e" d="M91.52 37.59h-25a5 5 0 0 0 0 10h25a5 5 0 1 0 0-10Z"/></g><g class="aa12b56a-60c4-4830-b6fc-213247d16408"><g style="clip-path:url(#b5ac5666-6b4c-40c4-a104-38ddfabb218e)"><path d="M39 67.65v58.4h21.26L79 93.6h47.59V67.65Zm0 0v58.4h21.26L79 93.6h47.59V67.65Z" style="fill:#db4437"/><path d="M31.41 162.83h45.3l21-21v-15.77H60.26L31.41 76.57Zm0 0h45.3l21-21v-15.77H60.26L31.41 76.57Z" style="fill:#0f9d58"/><path d="m79 93.6 18.74 32.45-21 36.78h49.88V93.6Zm0 0 18.74 32.45-21 36.78h49.88V93.6Z" style="fill:#ffcd40"/><circle cx="79" cy="115.24" r="21.64" style="fill:#f1f1f1"/><circle cx="79" cy="115.24" r="17.31" style="fill:#4285f4"/></g><path d="M23.89 27.57h110.22v47.59H23.89Z" style="fill-opacity:.05;fill:#212121" class="aa12b56a-60c4-4830-b6fc-213247d16408"/><path class="fb8c5240-578a-4eca-91cb-c87210e6d26a" d="M23.89 74.54h110.22v.62H23.89Z"/><path d="M23.89 75.16h110.22v.63H23.89Z" style="fill-opacity:.05;fill:#fff"/><path class="fb8c5240-578a-4eca-91cb-c87210e6d26a" d="M91.52 47.61h-25a5 5 0 0 1-5-4.7 1.72 1.72 0 0 0 0 .32 5 5 0 0 0 5 5h25a5 5 0 0 0 5-5 1.72 1.72 0 0 0 0-.32 5 5 0 0 1-5 4.7Zm-67.63-20v.63h110.22v-.63Z"/><path d="M66.48 37.59h25a5 5 0 0 1 5 4.7v-.32a5 5 0 0 0-5-5h-25a5 5 0 0 0-5 5 1.72 1.72 0 0 0 0 .32 5 5 0 0 1 5-4.7Zm60.11 84.54H31.41a7.54 7.54 0 0 1-7.52-7.52v.63a7.54 7.54 0 0 0 7.52 7.51h95.18a7.54 7.54 0 0 0 7.52-7.51v-.63a7.54 7.54 0 0 1-7.52 7.52Z" style="fill:#231f20;fill-opacity:.1"/><path d="M23.89 27.57v87.67a7.54 7.54 0 0 0 7.52 7.51h95.18a7.54 7.54 0 0 0 7.52-7.51V27.57Zm67.63 20h-25a5 5 0 0 1 0-10h25a5 5 0 1 1 0 10Z" style="fill:url(#aa0b694b-cd89-4cdc-996b-d7dc63b3a388)"/><path class="b399a64a-83d1-4855-a119-867a082cbf43" d="M18.89 15.05h120.22v120.23H18.89Z"/></g></svg>