<svg id="bb9d28ad-a595-42be-a3f9-77106a12b7ab" data-name="Layer 1" xmlns="http://www.w3.org/2000/svg" xmlns:xlink="http://www.w3.org/1999/xlink" viewBox="0 0 496 150"><defs><style>.f929670c-7846-47b4-a4b9-c97fc1e6fbb1{fill:#fff;}.f6a8e533-7e28-4637-8da5-c92db45ef682{fill:#dadce0;}.e9fa2919-be8f-445c-8f18-ba6c9acd4f27{fill:#5f6368;}.a09b785b-ba24-4d88-ade5-3ca1d12a29f3{fill:url(#a5519ea3-465c-4675-8a54-7efef3142dbb);}.b1eeb78a-b500-409b-bf85-7c127e8909b0{fill:url(#b54237e1-353b-46d9-8aa6-a8121e9b3d4c);}.b65ff426-041c-45ae-9e98-a912a472bfc7{fill:url(#f39f32c9-a680-47ed-bd01-5a34d8881bcf);}.a5b78a08-b7fa-4943-9ce9-68ae3a016dab{fill:url(#ac3a33d3-2553-4845-bee8-791c27d36d7e);}.e0963ec7-a137-48ed-9c41-b3c8da1b1d7b{fill:url(#aa3159d0-4152-4a26-b82e-c6cc57bfc594);}.a5c5ad5f-5b1c-409f-af21-e998c19a61f1{fill:url(#a80cad5b-8ff0-498f-9760-cb6921737547);}.b21e26d1-1c94-4ecd-b2f9-19ce711f2872{fill:url(#af24ce5a-b3a9-4c96-b836-578b67c69971);}.b66e5aea-3b04-4e7a-8e8c-c54637e8d2e8{fill:url(#a56cc21c-9dc1-41b8-8953-b39c4e7a9866);}.a3776cf5-b183-4024-aad6-83c9c9fcd602{fill:url(#b113172d-f9ad-473a-ac6a-9bf9c0a54ab7);}.f8b19ad5-d6c2-4ffa-82d9-82de4a106424{fill:url(#b817e097-4a71-45a1-97d0-8fdbb89cbc52);}.a9c14ce2-7206-4597-8754-c192d23db148{fill:url(#a3b735c6-126f-4d81-a9c5-61ba03cfee62);}.aad9948b-31b0-4429-804d-e862a370daec{fill:url(#f7f788c3-15fa-47e2-bd54-9322208366d7);}</style><linearGradient id="a5519ea3-465c-4675-8a54-7efef3142dbb" x1="123.09" y1="121.26" x2="32.38" y2="33.73" gradientTransform="matrix(1, 0, 0, -1, -1.3, 152)" gradientUnits="userSpaceOnUse"><stop offset="0.05" stop-color="#fff44f"/><stop offset="0.11" stop-color="#ffe847"/><stop offset="0.23" stop-color="#ffc830"/><stop offset="0.37" stop-color="#ff980e"/><stop offset="0.4" stop-color="#ff8b16"/><stop offset="0.46" stop-color="#ff672a"/><stop offset="0.53" stop-color="#ff3647"/><stop offset="0.7" stop-color="#e31587"/></linearGradient><radialGradient id="b54237e1-353b-46d9-8aa6-a8121e9b3d4c" cx="-7855.7" cy="8650.02" r="113.92" gradientTransform="matrix(1, 0, 0, -1, 7974, 8676)" gradientUnits="userSpaceOnUse"><stop offset="0.13" stop-color="#ffbd4f"/><stop offset="0.19" stop-color="#ffac31"/><stop offset="0.25" stop-color="#ff9d17"/><stop offset="0.28" stop-color="#ff980e"/><stop offset="0.4" stop-color="#ff563b"/><stop offset="0.47" stop-color="#ff3750"/><stop offset="0.71" stop-color="#f5156c"/><stop offset="0.78" stop-color="#eb0878"/><stop offset="0.86" stop-color="#e50080"/></radialGradient><radialGradient id="f39f32c9-a680-47ed-bd01-5a34d8881bcf" cx="-7898" cy="8603.49" r="113.92" gradientTransform="matrix(1, 0, 0, -1, 7974, 8676)" gradientUnits="userSpaceOnUse"><stop offset="0.3" stop-color="#960e18"/><stop offset="0.35" stop-color="#b11927" stop-opacity="0.74"/><stop offset="0.43" stop-color="#db293d" stop-opacity="0.34"/><stop offset="0.5" stop-color="#f5334b" stop-opacity="0.09"/><stop offset="0.53" stop-color="#ff3750" stop-opacity="0"/></radialGradient><radialGradient id="ac3a33d3-2553-4845-bee8-791c27d36d7e" cx="-7883.9" cy="8675.4" r="82.52" gradientTransform="matrix(1, 0, 0, -1, 7974, 8676)" gradientUnits="userSpaceOnUse"><stop offset="0.13" stop-color="#fff44f"/><stop offset="0.25" stop-color="#ffdc3e"/><stop offset="0.51" stop-color="#ff9d12"/><stop offset="0.53" stop-color="#ff980e"/></radialGradient><radialGradient id="aa3159d0-4152-4a26-b82e-c6cc57bfc594" cx="-7910.69" cy="8573.88" r="54.24" gradientTransform="matrix(1, 0, 0, -1, 7974, 8676)" gradientUnits="userSpaceOnUse"><stop offset="0.35" stop-color="#3a8ee6"/><stop offset="0.47" stop-color="#5c79f0"/><stop offset="0.67" stop-color="#9059ff"/><stop offset="1" stop-color="#c139e6"/></radialGradient><radialGradient id="a80cad5b-8ff0-498f-9760-cb6921737547" cx="-7949.42" cy="8510.09" r="28.76" gradientTransform="matrix(0.97, -0.23, -0.28, -1.14, 10148.62, 7879.09)" gradientUnits="userSpaceOnUse"><stop offset="0.21" stop-color="#9059ff" stop-opacity="0"/><stop offset="0.28" stop-color="#8c4ff3" stop-opacity="0.06"/><stop offset="0.75" stop-color="#7716a8" stop-opacity="0.45"/><stop offset="0.97" stop-color="#6e008b" stop-opacity="0.6"/></radialGradient><radialGradient id="af24ce5a-b3a9-4c96-b836-578b67c69971" cx="-7899.41" cy="8654.25" r="39.03" gradientTransform="matrix(1, 0, 0, -1, 7974, 8676)" gradientUnits="userSpaceOnUse"><stop offset="0" stop-color="#ffe226"/><stop offset="0.12" stop-color="#ffdb27"/><stop offset="0.29" stop-color="#ffc82a"/><stop offset="0.5" stop-color="#ffa930"/><stop offset="0.73" stop-color="#ff7e37"/><stop offset="0.79" stop-color="#ff7139"/></radialGradient><radialGradient id="a56cc21c-9dc1-41b8-8953-b39c4e7a9866" cx="-7868.39" cy="8679.62" r="166.51" gradientTransform="matrix(1, 0, 0, -1, 7974, 8676)" gradientUnits="userSpaceOnUse"><stop offset="0.11" stop-color="#fff44f"/><stop offset="0.46" stop-color="#ff980e"/><stop offset="0.62" stop-color="#ff5634"/><stop offset="0.72" stop-color="#ff3647"/><stop offset="0.9" stop-color="#e31587"/></radialGradient><radialGradient id="b113172d-f9ad-473a-ac6a-9bf9c0a54ab7" cx="-8340.38" cy="9777.88" r="121.96" gradientTransform="matrix(0.1, 1, 0.65, -0.07, -5417.44, 8978.96)" gradientUnits="userSpaceOnUse"><stop offset="0" stop-color="#fff44f"/><stop offset="0.06" stop-color="#ffe847"/><stop offset="0.17" stop-color="#ffc830"/><stop offset="0.3" stop-color="#ff980e"/><stop offset="0.36" stop-color="#ff8b16"/><stop offset="0.46" stop-color="#ff672a"/><stop offset="0.57" stop-color="#ff3647"/><stop offset="0.74" stop-color="#e31587"/></radialGradient><radialGradient id="b817e097-4a71-45a1-97d0-8fdbb89cbc52" cx="-7899.41" cy="8640.15" r="103.94" gradientTransform="matrix(1, 0, 0, -1, 7974, 8676)" gradientUnits="userSpaceOnUse"><stop offset="0.14" stop-color="#fff44f"/><stop offset="0.48" stop-color="#ff980e"/><stop offset="0.59" stop-color="#ff5634"/><stop offset="0.66" stop-color="#ff3647"/><stop offset="0.9" stop-color="#e31587"/></radialGradient><radialGradient id="a3b735c6-126f-4d81-a9c5-61ba03cfee62" cx="-7872.62" cy="8634.51" r="113.76" gradientTransform="matrix(1, 0, 0, -1, 7974, 8676)" gradientUnits="userSpaceOnUse"><stop offset="0.09" stop-color="#fff44f"/><stop offset="0.23" stop-color="#ffe141"/><stop offset="0.51" stop-color="#ffaf1e"/><stop offset="0.63" stop-color="#ff980e"/></radialGradient><linearGradient id="f7f788c3-15fa-47e2-bd54-9322208366d7" x1="122" y1="121.71" x2="44.82" y2="44.52" gradientTransform="matrix(1, 0, 0, -1, -1.3, 152)" gradientUnits="userSpaceOnUse"><stop offset="0.17" stop-color="#fff44f" stop-opacity="0.8"/><stop offset="0.27" stop-color="#fff44f" stop-opacity="0.63"/><stop offset="0.49" stop-color="#fff44f" stop-opacity="0.22"/><stop offset="0.6" stop-color="#fff44f" stop-opacity="0"/></linearGradient></defs><rect class="f929670c-7846-47b4-a4b9-c97fc1e6fbb1" x="1" y="1" width="494" height="148"/><path class="f6a8e533-7e28-4637-8da5-c92db45ef682" d="M494,2V148H2V2H494m2-2H0V150H496V0Z"/><path class="e9fa2919-be8f-445c-8f18-ba6c9acd4f27" d="M167.19,58.1l-2.1,6.36h-2.7l6.87-20.22h3.15l6.9,20.22h-2.79l-2.16-6.36Zm6.63-2-2-5.82c-.45-1.32-.75-2.52-1.05-3.69h-.06c-.3,1.2-.63,2.43-1,3.66l-2,5.85Z"/><path class="e9fa2919-be8f-445c-8f18-ba6c9acd4f27" d="M181.68,49.94l2.85,8.16a37.34,37.34,0,0,1,1.17,3.72h.09c.33-1.2.75-2.4,1.23-3.72l2.82-8.16h2.76l-5.7,14.52h-2.52l-5.52-14.52Z"/><path class="e9fa2919-be8f-445c-8f18-ba6c9acd4f27" d="M202.11,64.46l-.21-1.83h-.09a5.41,5.41,0,0,1-4.44,2.16,4.14,4.14,0,0,1-4.44-4.17c0-3.51,3.12-5.43,8.73-5.4v-.3c0-1.2-.33-3.36-3.3-3.36a7.23,7.23,0,0,0-3.78,1.08L194,50.9a9,9,0,0,1,4.77-1.29c4.44,0,5.52,3,5.52,5.94V61a20.44,20.44,0,0,0,.24,3.48Zm-.39-7.41c-2.88-.06-6.15.45-6.15,3.27a2.34,2.34,0,0,0,2.49,2.52,3.61,3.61,0,0,0,3.51-2.43,2.76,2.76,0,0,0,.15-.84Z"/><path class="e9fa2919-be8f-445c-8f18-ba6c9acd4f27" d="M210.57,45.86a1.64,1.64,0,0,1-3.27,0A1.61,1.61,0,0,1,209,44.21,1.57,1.57,0,0,1,210.57,45.86Zm-2.94,18.6V49.94h2.64V64.46Z"/><path class="e9fa2919-be8f-445c-8f18-ba6c9acd4f27" d="M213.75,43.16h2.64v21.3h-2.64Z"/><path class="e9fa2919-be8f-445c-8f18-ba6c9acd4f27" d="M228,64.46l-.21-1.83h-.09a5.41,5.41,0,0,1-4.44,2.16,4.14,4.14,0,0,1-4.44-4.17c0-3.51,3.12-5.43,8.73-5.4v-.3c0-1.2-.33-3.36-3.3-3.36a7.23,7.23,0,0,0-3.78,1.08l-.6-1.74a9,9,0,0,1,4.77-1.29c4.44,0,5.52,3,5.52,5.94V61a20.44,20.44,0,0,0,.24,3.48Zm-.39-7.41c-2.88-.06-6.15.45-6.15,3.27a2.34,2.34,0,0,0,2.49,2.52,3.61,3.61,0,0,0,3.51-2.43,2.76,2.76,0,0,0,.15-.84Z"/><path class="e9fa2919-be8f-445c-8f18-ba6c9acd4f27" d="M233.37,64.46c.06-1,.12-2.46.12-3.75V43.16h2.61v9.12h.06a5.41,5.41,0,0,1,5-2.67c3.6,0,6.15,3,6.12,7.41,0,5.19-3.27,7.77-6.51,7.77a5.17,5.17,0,0,1-4.86-2.73h-.09l-.12,2.4Zm2.73-5.82a4.94,4.94,0,0,0,.12,1,4.07,4.07,0,0,0,4,3.09c2.76,0,4.41-2.25,4.41-5.58,0-2.91-1.5-5.4-4.32-5.4a4.21,4.21,0,0,0-4,3.24A5.2,5.2,0,0,0,236.1,56Z"/><path class="e9fa2919-be8f-445c-8f18-ba6c9acd4f27" d="M249.66,43.16h2.64v21.3h-2.64Z"/><path class="e9fa2919-be8f-445c-8f18-ba6c9acd4f27" d="M257.31,57.68c.06,3.57,2.34,5,5,5a9.55,9.55,0,0,0,4-.75l.45,1.89a11.76,11.76,0,0,1-4.83.9c-4.47,0-7.14-2.94-7.14-7.32s2.58-7.83,6.81-7.83c4.74,0,6,4.17,6,6.84a10,10,0,0,1-.09,1.23Zm7.74-1.89c0-1.68-.69-4.29-3.66-4.29-2.67,0-3.84,2.46-4.05,4.29Z"/><path class="e9fa2919-be8f-445c-8f18-ba6c9acd4f27" d="M283.47,64.46l-.21-1.83h-.09a5.41,5.41,0,0,1-4.44,2.16,4.14,4.14,0,0,1-4.44-4.17c0-3.51,3.12-5.43,8.73-5.4v-.3c0-1.2-.33-3.36-3.3-3.36a7.23,7.23,0,0,0-3.78,1.08l-.6-1.74a9,9,0,0,1,4.77-1.29c4.44,0,5.52,3,5.52,5.94V61a20.44,20.44,0,0,0,.24,3.48Zm-.39-7.41c-2.88-.06-6.15.45-6.15,3.27a2.34,2.34,0,0,0,2.49,2.52,3.61,3.61,0,0,0,3.51-2.43,2.76,2.76,0,0,0,.15-.84Z"/><path class="e9fa2919-be8f-445c-8f18-ba6c9acd4f27" d="M288.63,61.76a6.92,6.92,0,0,0,3.48,1.05c1.92,0,2.82-1,2.82-2.16s-.75-1.95-2.7-2.67c-2.61-.93-3.84-2.37-3.84-4.11,0-2.34,1.89-4.26,5-4.26a7.25,7.25,0,0,1,3.57.9l-.66,1.92a5.65,5.65,0,0,0-3-.84c-1.56,0-2.43.9-2.43,2s.87,1.74,2.76,2.46c2.52,1,3.81,2.22,3.81,4.38,0,2.55-2,4.35-5.43,4.35a8.28,8.28,0,0,1-4.08-1Z"/><path class="e9fa2919-be8f-445c-8f18-ba6c9acd4f27" d="M162.68,78.5H177.2v2.92h-11v9h10.2v2.88h-10.2v12.2h-3.48Z"/><path class="e9fa2919-be8f-445c-8f18-ba6c9acd4f27" d="M183.72,80.66a2.18,2.18,0,0,1-4.36,0,2.14,2.14,0,0,1,2.2-2.2A2.09,2.09,0,0,1,183.72,80.66Zm-3.92,24.8V86.1h3.52v19.36Z"/><path class="e9fa2919-be8f-445c-8f18-ba6c9acd4f27" d="M188,92.14c0-2.28,0-4.24-.16-6h3.08l.12,3.8h.16a5.81,5.81,0,0,1,5.36-4.24,3.81,3.81,0,0,1,1,.12V89.1a5.29,5.29,0,0,0-1.2-.12c-2.48,0-4.24,1.88-4.72,4.52a9.91,9.91,0,0,0-.16,1.64v10.32H188Z"/><path class="e9fa2919-be8f-445c-8f18-ba6c9acd4f27" d="M201.4,96.42c.08,4.76,3.12,6.72,6.64,6.72a12.73,12.73,0,0,0,5.36-1l.6,2.52a15.68,15.68,0,0,1-6.44,1.2c-6,0-9.52-3.92-9.52-9.76s3.44-10.44,9.08-10.44c6.32,0,8,5.56,8,9.12a13.28,13.28,0,0,1-.12,1.64Zm10.32-2.52c0-2.24-.92-5.72-4.88-5.72-3.56,0-5.12,3.28-5.4,5.72Z"/><path class="e9fa2919-be8f-445c-8f18-ba6c9acd4f27" d="M218.64,105.46V88.78h-2.72V86.1h2.72v-.92c0-2.72.6-5.2,2.24-6.76a6.74,6.74,0,0,1,4.72-1.8,8.16,8.16,0,0,1,3,.56l-.48,2.72a5.26,5.26,0,0,0-2.24-.44c-3,0-3.76,2.64-3.76,5.6v1h4.68v2.68h-4.68v16.68Z"/><path class="e9fa2919-be8f-445c-8f18-ba6c9acd4f27" d="M245.76,95.62c0,7.16-5,10.28-9.64,10.28-5.24,0-9.28-3.84-9.28-10,0-6.48,4.24-10.28,9.6-10.28C242,85.66,245.76,89.7,245.76,95.62Zm-15.36.2c0,4.24,2.44,7.44,5.88,7.44s5.88-3.16,5.88-7.52c0-3.28-1.64-7.44-5.8-7.44S230.4,92.14,230.4,95.82Z"/><path class="e9fa2919-be8f-445c-8f18-ba6c9acd4f27" d="M250.08,86.1l2.76,4.16c.72,1.08,1.32,2.08,2,3.16h.12c.64-1.16,1.28-2.16,1.92-3.2l2.72-4.12h3.8l-6.6,9.36,6.8,10h-4l-2.84-4.36c-.76-1.12-1.4-2.2-2.08-3.36h-.08c-.64,1.16-1.32,2.2-2,3.36l-2.8,4.36h-3.88l6.88-9.88-6.56-9.48Z"/><path class="e9fa2919-be8f-445c-8f18-ba6c9acd4f27" d="M277.52,97l-2.8,8.48h-3.6l9.16-27h4.2l9.2,27H290L287.08,97Zm8.84-2.72-2.64-7.76c-.6-1.76-1-3.36-1.4-4.92h-.08c-.4,1.6-.84,3.24-1.36,4.88l-2.64,7.8Z"/><path class="e9fa2919-be8f-445c-8f18-ba6c9acd4f27" d="M312.56,77.06v23.4c0,1.72,0,3.68.16,5h-3.16l-.16-3.36h-.08a7.16,7.16,0,0,1-6.6,3.8c-4.68,0-8.28-4-8.28-9.84,0-6.44,4-10.4,8.68-10.4a6.47,6.47,0,0,1,5.84,3H309V77.06ZM309,94a6.21,6.21,0,0,0-.16-1.48,5.18,5.18,0,0,0-5.08-4.08c-3.64,0-5.8,3.2-5.8,7.48,0,3.92,1.92,7.16,5.72,7.16a5.29,5.29,0,0,0,5.16-4.2,6.11,6.11,0,0,0,.16-1.52Z"/><path class="e9fa2919-be8f-445c-8f18-ba6c9acd4f27" d="M333.92,77.06v23.4c0,1.72,0,3.68.16,5h-3.16l-.16-3.36h-.08a7.16,7.16,0,0,1-6.6,3.8c-4.68,0-8.28-4-8.28-9.84,0-6.44,4-10.4,8.68-10.4a6.47,6.47,0,0,1,5.84,3h.08V77.06ZM330.4,94a6.21,6.21,0,0,0-.16-1.48,5.18,5.18,0,0,0-5.08-4.08c-3.64,0-5.8,3.2-5.8,7.48,0,3.92,1.92,7.16,5.72,7.16a5.29,5.29,0,0,0,5.16-4.2,6.11,6.11,0,0,0,.16-1.52Z"/><path class="e9fa2919-be8f-445c-8f18-ba6c9acd4f27" d="M346.72,93.34v2.6h-9.88v-2.6Z"/><path class="e9fa2919-be8f-445c-8f18-ba6c9acd4f27" d="M373.36,91.7c0,9.28-5.64,14.2-12.52,14.2-7.12,0-12.12-5.52-12.12-13.68,0-8.56,5.32-14.16,12.52-14.16C368.6,78.06,373.36,83.7,373.36,91.7Zm-20.92.44c0,5.76,3.12,10.92,8.6,10.92s8.64-5.08,8.64-11.2c0-5.36-2.8-11-8.6-11S352.44,86.22,352.44,92.14Z"/><path class="e9fa2919-be8f-445c-8f18-ba6c9acd4f27" d="M376.56,91.34c0-2,0-3.64-.16-5.24h3.12l.2,3.2h.08a7.12,7.12,0,0,1,6.4-3.64c2.68,0,6.84,1.6,6.84,8.24v11.56h-3.52V94.3c0-3.12-1.16-5.72-4.48-5.72a5,5,0,0,0-4.72,3.6,5.06,5.06,0,0,0-.24,1.64v11.64h-3.52Z"/><path class="a09b785b-ba24-4d88-ade5-3ca1d12a29f3" d="M129,51.12c-2.37-5.71-7.19-11.88-11-13.83a56.54,56.54,0,0,1,5.53,16.58V54C117.45,38.57,107,32.35,98.42,18.83c-.44-.69-.87-1.37-1.29-2.09-.24-.42-.44-.79-.6-1.13a10,10,0,0,1-.82-2.17.14.14,0,0,0-.12-.14.21.21,0,0,0-.11,0l0,0,0,0,0,0c-13.73,8-18.39,22.91-18.81,30.36a27.29,27.29,0,0,0-15,5.79c-.45-.38-.92-.73-1.41-1.07A25.31,25.31,0,0,1,60,35,40.52,40.52,0,0,0,46.87,45.19h0c-2.17-2.74-2-11.79-1.89-13.68a9.17,9.17,0,0,0-1.83,1,39.41,39.41,0,0,0-5.34,4.57,48.28,48.28,0,0,0-5.11,6.13h0a46.22,46.22,0,0,0-7.33,16.55l-.07.36c-.1.48-.47,2.89-.54,3.41,0,0,0,.08,0,.12a51.7,51.7,0,0,0-.89,7.54v.28a54.65,54.65,0,0,0,108.49,9.24c.1-.71.17-1.4.25-2.12A56.16,56.16,0,0,0,129,51.11Zm-63,42.78.76.37,0,0C66.59,94.17,66.33,94,66.06,93.9ZM123.63,54v0Z"/><path class="b1eeb78a-b500-409b-bf85-7c127e8909b0" d="M129,51.12c-2.37-5.71-7.19-11.88-11-13.83a56.54,56.54,0,0,1,5.53,16.58V54a49.41,49.41,0,0,1-1.7,36.88c-6.26,13.44-21.41,27.21-45.14,26.54-25.63-.73-48.22-19.76-52.43-44.67-.77-3.93,0-5.92.38-9.11a41.5,41.5,0,0,0-.88,7.54v.28a54.65,54.65,0,0,0,108.49,9.24c.1-.71.17-1.4.25-2.12a56.18,56.18,0,0,0-3.54-27.45Z"/><path class="b65ff426-041c-45ae-9e98-a912a472bfc7" d="M129,51.12c-2.37-5.71-7.19-11.88-11-13.83a56.54,56.54,0,0,1,5.53,16.58V54a49.41,49.41,0,0,1-1.7,36.88c-6.26,13.44-21.41,27.21-45.14,26.54-25.63-.73-48.22-19.76-52.43-44.67-.77-3.93,0-5.92.38-9.11a41.5,41.5,0,0,0-.88,7.54v.28a54.65,54.65,0,0,0,108.49,9.24c.1-.71.17-1.4.25-2.12a56.18,56.18,0,0,0-3.54-27.45Z"/><path class="a5b78a08-b7fa-4943-9ce9-68ae3a016dab" d="M102.48,57.54l.34.25a29.23,29.23,0,0,0-5.08-6.62c-17-17-4.45-36.83-2.33-37.85l0,0C81.7,21.33,77,36.2,76.62,43.65c.64,0,1.27-.1,1.92-.1a27.59,27.59,0,0,1,23.94,14Z"/><path class="e0963ec7-a137-48ed-9c41-b3c8da1b1d7b" d="M78.57,60.93C78.48,62.29,73.68,67,72,67c-15.54,0-18.06,9.4-18.06,9.4.68,7.92,6.2,14.44,12.87,17.88.3.16.61.3.92.44.53.24,1.07.45,1.6.66a24.68,24.68,0,0,0,7.11,1.37C103.68,98,109,64.16,89.3,54.33a18.91,18.91,0,0,1,13.18,3.2,27.59,27.59,0,0,0-23.94-14c-.65,0-1.29.05-1.92.1a27.29,27.29,0,0,0-15.05,5.79c.84.71,1.78,1.65,3.76,3.6,3.71,3.65,13.21,7.44,13.24,7.88Z"/><path class="a5c5ad5f-5b1c-409f-af21-e998c19a61f1" d="M78.57,60.93C78.48,62.29,73.68,67,72,67c-15.54,0-18.06,9.4-18.06,9.4.68,7.92,6.2,14.44,12.87,17.88.3.16.61.3.92.44.53.24,1.07.45,1.6.66a24.68,24.68,0,0,0,7.11,1.37C103.68,98,109,64.16,89.3,54.33a18.91,18.91,0,0,1,13.18,3.2,27.59,27.59,0,0,0-23.94-14c-.65,0-1.29.05-1.92.1a27.29,27.29,0,0,0-15.05,5.79c.84.71,1.78,1.65,3.76,3.6,3.71,3.65,13.21,7.44,13.24,7.88Z"/><path class="b21e26d1-1c94-4ecd-b2f9-19ce711f2872" d="M59,47.64c.44.28.81.53,1.13.75A25.34,25.34,0,0,1,60,35,40.31,40.31,0,0,0,46.85,45.2C47.12,45.19,55,45.05,59,47.64Z"/><path class="b66e5aea-3b04-4e7a-8e8c-c54637e8d2e8" d="M24.34,72.73c4.21,24.92,26.8,44,52.43,44.67,23.73.67,38.88-13.1,45.14-26.53A49.44,49.44,0,0,0,123.61,54v0c1.94,12.66-4.49,24.91-14.56,33.22l0,.07c-19.61,16-38.38,9.63-42.17,7l-.8-.4C54.63,88.45,49.91,78,50.92,69.1A14,14,0,0,1,38,61a20.6,20.6,0,0,1,20.09-.81A27.19,27.19,0,0,0,78.58,61c0-.45-9.53-4.23-13.24-7.89-2-2-2.92-2.89-3.75-3.6a16.22,16.22,0,0,0-1.41-1.06c-.32-.23-.69-.47-1.13-.75-4-2.59-11.91-2.45-12.17-2.44h0c-2.16-2.75-2-11.8-1.89-13.69a9.63,9.63,0,0,0-1.82,1,39.41,39.41,0,0,0-5.34,4.57,46.85,46.85,0,0,0-5.13,6.12h0a46,46,0,0,0-7.33,16.55c0,.11-2,8.6-1,13Z"/><path class="a3776cf5-b183-4024-aad6-83c9c9fcd602" d="M97.74,51.16a29.51,29.51,0,0,1,5.08,6.63c.3.23.58.45.82.67C116,69.88,109.54,86,109.05,87.17c10.07-8.29,16.5-20.56,14.57-33.22C117.44,38.54,107,32.32,98.41,18.8c-.44-.68-.87-1.37-1.29-2.09-.24-.41-.43-.79-.6-1.13a9.91,9.91,0,0,1-.82-2.16.13.13,0,0,0-.12-.14h-.13l0,0c-2.11,1-14.65,20.85,2.34,37.83Z"/><path class="f8b19ad5-d6c2-4ffa-82d9-82de4a106424" d="M103.64,58.47a9.84,9.84,0,0,0-.82-.67l-.34-.25a18.81,18.81,0,0,0-13.18-3.2C109,64.17,103.68,98,76.45,96.74a24.22,24.22,0,0,1-7.11-1.37c-.54-.2-1.07-.42-1.61-.66-.31-.14-.62-.28-.92-.44l0,0c3.8,2.59,22.56,8.93,42.17-7l0-.07c.49-1.14,7-17.29-5.42-28.71Z"/><path class="a9c14ce2-7206-4597-8754-c192d23db148" d="M53.94,76.37S56.46,67,72,67c1.68,0,6.48-4.69,6.57-6a27.19,27.19,0,0,1-20.51-.81A20.6,20.6,0,0,0,38,60.93a14,14,0,0,0,12.94,8.14c-1,8.93,3.71,19.34,15.14,24.81.26.12.5.26.76.37-6.67-3.44-12.18-10-12.87-17.87Z"/><path class="aad9948b-31b0-4429-804d-e862a370daec" d="M129,51.12c-2.37-5.71-7.19-11.88-11-13.83a56.54,56.54,0,0,1,5.53,16.58V54C117.45,38.57,107,32.35,98.42,18.83c-.44-.69-.87-1.37-1.29-2.09-.24-.42-.44-.79-.6-1.13a10,10,0,0,1-.82-2.17.14.14,0,0,0-.12-.14.21.21,0,0,0-.11,0l0,0,0,0,0,0c-13.73,8-18.39,22.91-18.81,30.36.64,0,1.27-.1,1.92-.1a27.59,27.59,0,0,1,23.94,14,18.88,18.88,0,0,0-13.17-3.2C109,64.17,103.7,98,76.46,96.74a24.29,24.29,0,0,1-7.11-1.37c-.54-.2-1.07-.42-1.6-.66-.31-.14-.62-.28-.93-.44l0,0-.79-.39.75.37C60.15,90.82,54.64,84.3,54,76.39c0,0,2.52-9.4,18.06-9.4,1.68,0,6.49-4.69,6.57-6,0-.45-9.53-4.23-13.23-7.89-2-2-2.93-2.89-3.76-3.6a16.22,16.22,0,0,0-1.41-1.06A25.34,25.34,0,0,1,60,35,40.45,40.45,0,0,0,46.87,45.21h0c-2.17-2.75-2-11.8-1.89-13.69a9.63,9.63,0,0,0-1.82,1,39.49,39.49,0,0,0-5.35,4.57,48.21,48.21,0,0,0-5.1,6.13h0a45.87,45.87,0,0,0-7.33,16.55l-.08.36c-.1.48-.56,2.93-.63,3.45h0a62.68,62.68,0,0,0-.8,7.62v.28a54.65,54.65,0,0,0,108.49,9.24c.09-.71.16-1.4.24-2.12A56.18,56.18,0,0,0,129,51.12Zm-5.42,2.81v0Z"/></svg>