<svg width="70" height="70" xmlns="http://www.w3.org/2000/svg"><g fill="none" fill-rule="evenodd"><g transform="translate(5 5.5)"><circle fill="#2D8B00" cx="30" cy="30" r="30"/><g fill="#FFF"><path d="M37.005 19.791a2.941 2.941 0 0 1 1.07 3.98l-7.944 14.093a2.835 2.835 0 0 1-3.907 1.051 2.941 2.941 0 0 1-1.07-3.98l7.944-14.093a2.835 2.835 0 0 1 3.907-1.05Z"/><path d="M29.16 38.623a2.928 2.928 0 0 1-4.073-.866L20.2 30.142a2.992 2.992 0 0 1 .875-4.116 2.928 2.928 0 0 1 4.072.865l4.887 7.615a2.992 2.992 0 0 1-.874 4.117Z"/></g></g><path d="M35 63C19.536 63 7 50.464 7 35S19.536 7 35 7s28 12.536 28 28-12.536 28-28 28M0 35c0 19.33 15.67 35 35 35s35-15.67 35-35S54.33 0 35 0 0 15.67 0 35Z" fill="#FFF"/></g></svg>