<?xml version="1.0" encoding="UTF-8"?>
<svg width="70px" height="70px" viewBox="0 0 70 70" version="1.1" xmlns="http://www.w3.org/2000/svg" xmlns:xlink="http://www.w3.org/1999/xlink">
    <title>9DF4B1EA-DF24-4C21-B767-53E1165D8FE2</title>
    <g id="Linking-Process" stroke="none" stroke-width="1" fill="none" fill-rule="evenodd">
        <g id="Linking-process-9" transform="translate(-685.000000, -382.000000)">
            <g id="Pop-up" transform="translate(530.000000, 205.000000)">
                <g id="icon_ok" transform="translate(155.000000, 177.000000)">
                    <g id="dark/ok" transform="translate(5.000000, 5.500000)">
                        <circle id="Oval" fill="#2D8B00" cx="30" cy="30" r="30"></circle>
                        <g id="Group" transform="translate(30.495921, 29.652973) rotate(-15.000000) translate(-30.495921, -29.652973) translate(19.438375, 19.753478)" fill="#FFFFFF">
                            <g id="Group-2" transform="translate(-0.000000, -0.000000)">
                                <g id="Group-9" transform="translate(0.000000, -0.000000)">
                                    <path d="M12.1029167,-1.07678962 C13.7060973,-1.06362164 15.0034187,0.231040406 15.0198764,1.83419061 L15.1859571,18.0122302 C15.2020271,19.5776251 13.9460512,20.8596557 12.3806563,20.8757257 C12.3631973,20.875905 12.345737,20.8759229 12.3282777,20.8757795 C10.7250971,20.8626115 9.42777566,19.5679495 9.41131802,17.9647993 L9.24523731,1.78675972 C9.22916726,0.22136482 10.4851432,-1.06066583 12.0505381,-1.07673588 C12.0679971,-1.07691511 12.0854574,-1.07693302 12.1029167,-1.07678962 Z" id="Rectangle-Copy" transform="translate(12.215597, 9.899495) rotate(-315.000000) translate(-12.215597, -9.899495) "></path>
                                    <path d="M5.21103339,3.60355521 C6.82811432,3.59479256 8.14612096,4.89859214 8.15488361,6.51567307 C8.1549407,6.52620901 8.15494093,6.53674518 8.15488428,6.54728112 L8.10623696,15.5956758 C8.09742095,17.2354514 6.77033586,18.5625928 5.13056062,18.5714784 C3.51347969,18.5802411 2.19547305,17.2764415 2.1867104,15.6593606 C2.18665331,15.6488246 2.18665309,15.6382885 2.18670973,15.6277525 L2.23535706,6.57935789 C2.24417306,4.93958227 3.57125815,3.61244084 5.21103339,3.60355521 Z" id="Rectangle-Copy-2" transform="translate(5.170797, 11.087517) rotate(-558.000000) translate(-5.170797, -11.087517) "></path>
                                </g>
                            </g>
                        </g>
                    </g>
                    <path d="M35,63 C19.536,63 7,50.464 7,35 C7,19.536 19.536,7 35,7 C50.464,7 63,19.536 63,35 C63,50.464 50.464,63 35,63 M0,35 C0,54.33 15.67,70 35,70 C54.33,70 70,54.33 70,35 C70,15.67 54.33,0 35,0 C15.67,0 0,15.67 0,35 Z" id="Fill-1" fill="#FFFFFF"></path>
                </g>
            </g>
        </g>
    </g>
</svg>