<svg height="24" viewBox="0 0 24 24" width="24" xmlns="http://www.w3.org/2000/svg"><g fill="none" fill-rule="evenodd" transform="translate(2 2)"><path d="m10-1c3.0375661 0 5.7875661 1.23121694 7.7781746 3.22182541s3.2218254 4.74060847 3.2218254 7.77817459c0 3.0375661-1.2312169 5.7875661-3.2218254 7.7781746s-4.7406085 3.2218254-7.7781746 3.2218254c-3.03756612 0-5.78756612-1.2312169-7.77817459-3.2218254-1.99060847-1.9906085-3.22182541-4.7406085-3.22182541-7.7781746 0-3.03756612 1.23121694-5.78756612 3.22182541-7.77817459 1.99060847-1.99060847 4.74060847-3.22182541 7.77817459-3.22182541z" stroke="#34737b" stroke-width="2" transform="matrix(0 1 1 0 0 0)"/><path d="m1.176 2.31c-.31733333 0-.59266667-.11433333-.826-.343s-.35-.50166667-.35-.819.11433333-.588.343-.812.50633333-.336.833-.336.602.10966667.826.329.336.49233333.336.819c0 .31733333-.112.59033333-.336.819s-.49933333.343-.826.343zm-1.022 7.84v-7.154h2.03v7.154z" fill="#34737b" fill-rule="nonzero" transform="matrix(-1 0 0 1 11.21275 4.85)"/></g></svg>