<svg height="24" width="24" xmlns="http://www.w3.org/2000/svg"><g fill="none" fill-rule="evenodd"><path d="M1 12c0 3.038 1.231 5.788 3.222 7.778S8.962 23 12 23c3.038 0 5.788-1.231 7.778-3.222S23 15.038 23 12c0-3.038-1.231-5.788-3.222-7.778A10.966 10.966 0 0 0 12 1a10.966 10.966 0 0 0-7.778 3.222A10.966 10.966 0 0 0 1 12z" stroke="#34737b" stroke-width="2"/><path d="M12.037 9.16c.317 0 .592-.114.826-.343s.35-.502.35-.819-.115-.588-.343-.812-.507-.336-.833-.336-.602.11-.826.329-.336.492-.336.819c0 .317.112.59.336.819s.5.343.826.343zM13.059 17V9.846h-2.03V17z" fill="#34737b" fill-rule="nonzero"/></g></svg>