<?xml version="1.0" encoding="UTF-8"?>
<svg width="24px" height="24px" viewBox="0 0 24 24" version="1.1" xmlns="http://www.w3.org/2000/svg" xmlns:xlink="http://www.w3.org/1999/xlink">
    <title>Open</title>
    <g id="Visual-Design" stroke="none" stroke-width="1" fill="none" fill-rule="evenodd">
        <g id="Linking-Page---All-closed-GREEN" transform="translate(-1280.000000, -600.000000)">
            <g id="Link" transform="translate(129.000000, 582.000000)">
                <g id="Open" transform="translate(1153.000000, 20.000000)">
                    <path d="M10,-1 C13.0375661,-1 15.7875661,0.231216938 17.7781746,2.22182541 C19.7687831,4.21243388 21,6.96243388 21,10 C21,13.0375661 19.7687831,15.7875661 17.7781746,17.7781746 C15.7875661,19.7687831 13.0375661,21 10,21 C6.96243388,21 4.21243388,19.7687831 2.22182541,17.7781746 C0.231216938,15.7875661 -1,13.0375661 -1,10 C-1,6.96243388 0.231216938,4.21243388 2.22182541,2.22182541 C4.21243388,0.231216938 6.96243388,-1 10,-1 Z" id="Rectangle-Copy" stroke="#FFFFFF" stroke-width="2" transform="translate(10.000000, 10.000000) scale(1, -1) rotate(-90.000000) translate(-10.000000, -10.000000) "></path>
                    <g id="Group-3" transform="translate(10.000000, 10.500000) scale(1, -1) rotate(-360.000000) translate(-10.000000, -10.500000) translate(5.500000, 7.500000)" fill="#FFFFFF">
                        <path d="M4.50396505,6 L8.70956017,1.73815503 C9.09681328,1.34572242 9.09681328,0.710195881 8.70956017,0.317763268 C8.32230707,-0.0746693454 7.69450767,-0.0746693454 7.30791541,0.317763268 L4.51123431,3.15118031 L1.69208459,0.29432446 C1.30483149,-0.0981081534 0.677032088,-0.0981081534 0.290439827,0.29432446 C-0.0968132756,0.686087393 -0.0968132756,1.32228361 0.290439827,1.71471622" id="Fill-1" transform="translate(4.500000, 3.000000) scale(1, -1) translate(-4.500000, -3.000000) "></path>
                    </g>
                </g>
            </g>
        </g>
    </g>
</svg>