<svg width="24" height="24" xmlns="http://www.w3.org/2000/svg"><g fill="none" fill-rule="evenodd"><path d="M1 12c0 3.038 1.231 5.788 3.222 7.778A10.966 10.966 0 0 0 12 23c3.038 0 5.788-1.231 7.778-3.222A10.966 10.966 0 0 0 23 12c0-3.038-1.231-5.788-3.222-7.778A10.966 10.966 0 0 0 12 1a10.966 10.966 0 0 0-7.778 3.222A10.966 10.966 0 0 0 1 12Z" stroke="#FFF" stroke-width="2"/><path d="m12.004 15.5 4.206-4.262a1.014 1.014 0 0 0 0-1.42.982.982 0 0 0-1.402 0L12.01 12.65 9.192 9.794a.982.982 0 0 0-1.402 0 1.014 1.014 0 0 0 0 1.42" fill="#FFF"/></g></svg>